<svg xmlns="http://www.w3.org/2000/svg" width="1400" height="642.75"><rect width="1400" height="642.75" rx="5" ry="5" class="a"/><svg y="0%" x="0%"><circle cx="20" cy="20" r="6" fill="#ff5f58"/><circle cx="40" cy="20" r="6" fill="#ffbd2e"/><circle cx="60" cy="20" r="6" fill="#18c132"/></svg><svg height="542.75" viewBox="0 0 132 54.275" width="1320" x="35" xmlns="http://www.w3.org/2000/svg" y="70"><style>.inserted-lf{fill:#999999;fill-opacity:.75;font-variant-position:sub;font-size:75%}.container{font-family:'JetBrains Mono','Monaco','Consolas','Menlo','Bitstream Vera Sans Mono','Lucida Console','Ubuntu Mono','Meslo for Powerline','Meslo LG M for Powerline','Powerline Symbols','Monospace','monospace'}.container>g{animation-play-state:running}.container_end{fill:whitesmoke;mix-blend-mode:soft-light;opacity:0;transition:opacity .2s ease-in-out}.container:hover>g{animation-play-state:paused}.container{pointer-events:all}.container:hover{cursor:wait}.container:hover>.container_end{opacity:1}.container>g>svg>svg>*{transform: scaleY(.95);}@keyframes k{0%{transform:translateX(0)}.09%{transform:translateX(-132px)}.12%{transform:translateX(-264px)}6.3%{transform:translateX(-396px)}6.55%{transform:translateX(-528px)}6.8%{transform:translateX(-660px)}7.05%{transform:translateX(-792px)}7.3%{transform:translateX(-924px)}7.54%{transform:translateX(-1056px)}7.79%{transform:translateX(-1188px)}8.03%{transform:translateX(-1320px)}8.28%{transform:translateX(-1452px)}8.53%{transform:translateX(-1584px)}11.75%{transform:translateX(-1716px)}14.73%{transform:translateX(-1848px)}14.76%{transform:translateX(-1980px)}14.77%{transform:translateX(-2112px)}14.8%{transform:translateX(-2244px)}49.93%{transform:translateX(-2376px)}56.11%{transform:translateX(-2508px)}56.36%{transform:translateX(-2640px)}59.58%{transform:translateX(-2772px)}62.56%{transform:translateX(-2904px)}62.59%{transform:translateX(-3168px)}65.31%{transform:translateX(-3300px)}65.33%{transform:translateX(-3432px)}65.53%{transform:translateX(-3564px)}65.67%{transform:translateX(-3696px)}69.23%{transform:translateX(-3828px)}70.11%{transform:translateX(-3960px)}70.12%{transform:translateX(-4224px)}70.13%{transform:translateX(-4356px)}73.11%{transform:translateX(-4488px)}76.1%{transform:translateX(-4620px)}76.11%{transform:translateX(-4752px)}79.09%{transform:translateX(-4884px)}82.08%{transform:translateX(-5016px)}82.09%{transform:translateX(-5148px)}85.07%{transform:translateX(-5280px)}88.05%{transform:translateX(-5412px)}88.06%{transform:translateX(-5544px)}91.04%{transform:translateX(-5676px)}94.02%{transform:translateX(-5808px)}94.04%{transform:translateX(-5940px)}97.02%{transform:translateX(-6072px)}to{transform:translateX(-6204px)}}.a{fill:#2d2d2d}.f,.g,.h{fill:#dcdcdc;white-space:pre}.g,.h{fill:#6e6e6e}.h{fill:#b0b0b0}</style><g class="container" font-size="1.67"><defs><symbol id="1"><text y="1.67" class="f">❱</text></symbol><symbol id="2"><text y="1.67" class="f">❱</text><text x="2.004" y="1.67" class="f">cat</text><text x="6.012" y="1.67" class="f">&lt;&lt;BATS</text><text x="13.026" y="1.67" class="f">&gt;test.bats</text></symbol><symbol id="3"><text y="1.67" class="f">@test</text><text x="6.012" y="1.67" class="f">&quot;should</text><text x="14.028" y="1.67" class="f">print</text><text x="20.04" y="1.67" class="f">&apos;Hello</text><text x="27.054" y="1.67" class="f">World&apos;&quot;</text><text x="35.07" y="1.67" class="f">{</text></symbol><symbol id="4"><text x="2.004" y="1.67" class="f">run</text><text x="6.012" y="1.67" class="f">echo</text><text x="11.022" y="1.67" class="f">&quot;Hello</text><text x="18.036" y="1.67" class="f">World&quot;</text></symbol><symbol id="5"><text x="2.004" y="1.67" class="f">assert_output</text><text x="16.032" y="1.67" class="f">&quot;Hello</text><text x="23.046" y="1.67" class="f">World&quot;</text></symbol><symbol id="6"><text y="1.67" class="f">}</text></symbol><symbol id="7"><text y="1.67" class="f">BATS</text></symbol><symbol id="8"><text y="1.67" class="g">❱</text><text x="2.004" y="1.67" class="g">cat</text><text x="6.012" y="1.67" class="g">&lt;&lt;BATS</text><text x="13.026" y="1.67" class="g">&gt;test.bats</text></symbol><symbol id="9"><text y="1.67" class="g">@test</text><text x="6.012" y="1.67" class="g">&quot;should</text><text x="14.028" y="1.67" class="g">print</text><text x="20.04" y="1.67" class="g">&apos;Hello</text><text x="27.054" y="1.67" class="g">World&apos;&quot;</text><text x="35.07" y="1.67" class="g">{</text></symbol><symbol id="10"><text x="2.004" y="1.67" class="g">run</text><text x="6.012" y="1.67" class="g">echo</text><text x="11.022" y="1.67" class="g">&quot;Hello</text><text x="18.036" y="1.67" class="g">World&quot;</text></symbol><symbol id="11"><text x="2.004" y="1.67" class="g">assert_output</text><text x="16.032" y="1.67" class="g">&quot;Hello</text><text x="23.046" y="1.67" class="g">World&quot;</text></symbol><symbol id="12"><text y="1.67" class="g">}</text></symbol><symbol id="13"><text y="1.67" class="g">BATS</text></symbol><symbol id="14"><text y="1.67" class="f">❱</text><text x="2.004" y="1.67" class="f">./batsw</text><text x="10.02" y="1.67" class="f">test.bats</text></symbol><symbol id="15"><text y="1.67" class="g">❱</text><text x="2.004" y="1.67" class="g">./batsw</text><text x="10.02" y="1.67" class="g">test.bats</text></symbol><symbol id="16"><text y="1.67" class="h">▶▶</text><text x="3.006" y="1.67" class="h">TEST</text><text x="8.016" y="1.67" class="h">RUN</text></symbol><symbol id="17"><text x="1.002" y="1.67" class="h">ℹ</text><text x="3.006" y="1.67" class="h">working</text><a href="directory:"><title>Displayed as link in supporting terminal emulators</title><text x="11.022" y="1.67" class="h">directory:</text></a><text x="22.044" y="1.67" class="h">/home/runner/work/bats-wrapper/bats-wrapper</text></symbol><symbol id="18"><text x="1.002" y="1.67" class="h">ℹ</text><text x="3.006" y="1.67" class="h">bats</text><text x="8.016" y="1.67" class="h">command</text><a href="line:"><title>Displayed as link in supporting terminal emulators</title><text x="16.032" y="1.67" class="h">line:</text></a><text x="22.044" y="1.67" class="h">bats</text><text x="27.054" y="1.67" class="h">--jobs</text><text x="34.068" y="1.67" class="h">2</text><text x="36.072" y="1.67" class="h">--no-parallelize-within-files</text><text x="66.132" y="1.67" class="h">--recursive</text><text x="78.156" y="1.67" class="h">--timing</text><text x="87.174" y="1.67" class="h">test.bats</text></symbol><symbol id="19"><text y="1.67" class="h">1..1</text></symbol><symbol id="20"><text y="1.67" class="h">ok</text><text x="3.006" y="1.67" class="h">1</text><text x="5.01" y="1.67" class="h">should</text><text x="12.024" y="1.67" class="h">print</text><text x="18.036" y="1.67" class="h">&apos;Hello</text><text x="25.05" y="1.67" class="h">World&apos;</text><text x="32.064" y="1.67" class="h">in</text><text x="35.07" y="1.67" class="h">1000ms</text></symbol><symbol id="21"><text y="1.67" class="h">5</text></symbol><symbol id="22"><text y="1.67" class="h">4</text></symbol><symbol id="23"><text y="1.67" class="h">3</text></symbol><symbol id="24"><text y="1.67" class="h">2</text></symbol><symbol id="25"><text y="1.67" class="h">1</text></symbol><symbol id="a"><path fill="transparent" d="M0 0h132v26H0z"/></symbol><symbol id="b"><path fill="silver" d="M0 0h1.102v2.171H0z"/></symbol></defs><path class="a" d="M0 0h132v54.275H0z"/><g style="animation-duration:16.864288s;animation-iteration-count:infinite;animation-name:k;animation-timing-function:steps(1,end)"><svg width="6336"><svg><use href="#a"/><use href="#b" x="-.004"/></svg><svg x="132"><use href="#a"/><use href="#b" x="-.004"/></svg><svg x="264"><use href="#a"/><use href="#b" x="1.996"/><use href="#1"/></svg><svg x="396"><use href="#a"/><use href="#b" x="15.996"/><text y="1.67" class="f">❱</text><text x="2.004" y="1.67" class="f">cat</text><text x="6.012" y="1.67" class="f">&lt;&lt;BATS</text><text x="13.026" y="1.67" class="f">&gt;te</text></svg><svg x="528"><use href="#a"/><use href="#b" x="5.996" y="2.146"/><use href="#2"/><text y="3.841" class="f">@test</text></svg><svg x="660"><use href="#a"/><use href="#b" x="18.996" y="2.146"/><use href="#2"/><text y="3.841" class="f">@test</text><text x="6.012" y="3.841" class="f">&quot;should</text><text x="14.028" y="3.841" class="f">print</text></svg><svg x="792"><use href="#a"/><use href="#b" x="32.996" y="2.146"/><use href="#2"/><text y="3.841" class="f">@test</text><text x="6.012" y="3.841" class="f">&quot;should</text><text x="14.028" y="3.841" class="f">print</text><text x="20.04" y="3.841" class="f">&apos;Hello</text><text x="27.054" y="3.841" class="f">World&apos;</text></svg><svg x="924"><use href="#a"/><use href="#b" x="7.996" y="4.317"/><use href="#2"/><use href="#3" y="2.171"/><text x="2.004" y="6.012" class="f">run</text><text x="6.012" y="6.012" class="f">ec</text></svg><svg x="1056"><use href="#a"/><use href="#b" x="20.996" y="4.317"/><use href="#2"/><use href="#3" y="2.171"/><text x="2.004" y="6.012" class="f">run</text><text x="6.012" y="6.012" class="f">echo</text><text x="11.022" y="6.012" class="f">&quot;Hello</text><text x="18.036" y="6.012" class="f">Wor</text></svg><svg x="1188"><use href="#a"/><use href="#b" x="8.996" y="6.488"/><use href="#2"/><use href="#3" y="2.171"/><use href="#4" y="4.342"/><text x="2.004" y="8.183" class="f">assert_</text></svg><svg x="1320"><use href="#a"/><use href="#b" x="18.996" y="6.488"/><use href="#2"/><use href="#3" y="2.171"/><use href="#4" y="4.342"/><text x="2.004" y="8.183" class="f">assert_output</text><text x="16.032" y="8.183" class="f">&quot;He</text></svg><svg x="1452"><use href="#a"/><use href="#b" x="-.004" y="10.83"/><use href="#2"/><use href="#3" y="2.171"/><use href="#4" y="4.342"/><use href="#5" y="6.513"/><use href="#6" y="8.684"/></svg><svg x="1584"><use href="#a"/><use href="#b" x="3.996" y="10.83"/><use href="#2"/><use href="#3" y="2.171"/><use href="#4" y="4.342"/><use href="#5" y="6.513"/><use href="#6" y="8.684"/><use href="#7" y="10.855"/></svg><svg x="1716"><use href="#a"/><use href="#2"/><use href="#3" y="2.171"/><use href="#4" y="4.342"/><use href="#5" y="6.513"/><use href="#6" y="8.684"/><use href="#7" y="10.855"/></svg><svg x="1848"><use href="#a"/><use href="#b" x="3.996" y="10.83"/><use href="#2"/><use href="#3" y="2.171"/><use href="#4" y="4.342"/><use href="#5" y="6.513"/><use href="#6" y="8.684"/><use href="#7" y="10.855"/></svg><svg x="1980"><use href="#a"/><use href="#b" x="-.004" y="23.856"/><use href="#2"/><use href="#3" y="2.171"/><use href="#4" y="4.342"/><use href="#5" y="6.513"/><use href="#6" y="8.684"/><use href="#8" y="10.855"/><use href="#9" y="13.026"/><use href="#10" y="15.197"/><use href="#11" y="17.368"/><use href="#12" y="19.539"/><use href="#13" y="21.71"/></svg><svg x="2112"><use href="#a"/><use href="#2"/><use href="#3" y="2.171"/><use href="#4" y="4.342"/><use href="#5" y="6.513"/><use href="#6" y="8.684"/><use href="#8" y="10.855"/><use href="#9" y="13.026"/><use href="#10" y="15.197"/><use href="#11" y="17.368"/><use href="#12" y="19.539"/><use href="#13" y="21.71"/></svg><svg x="2244"><use href="#a"/><use href="#2"/><use href="#3" y="2.171"/><use href="#4" y="4.342"/><use href="#5" y="6.513"/><use href="#6" y="8.684"/><use href="#8" y="10.855"/><use href="#9" y="13.026"/><use href="#10" y="15.197"/><use href="#11" y="17.368"/><use href="#12" y="19.539"/><use href="#13" y="21.71"/></svg><svg x="2376"><use href="#a"/><use href="#b" x="1.996" y="26.027"/><use href="#2"/><use href="#3" y="2.171"/><use href="#4" y="4.342"/><use href="#5" y="6.513"/><use href="#6" y="8.684"/><use href="#8" y="10.855"/><use href="#9" y="13.026"/><use href="#10" y="15.197"/><use href="#11" y="17.368"/><use href="#12" y="19.539"/><use href="#13" y="21.71"/><use href="#1" y="26.052"/></svg><svg x="2508"><use href="#a"/><use href="#b" x="14.996" y="26.027"/><use href="#2"/><use href="#3" y="2.171"/><use href="#4" y="4.342"/><use href="#5" y="6.513"/><use href="#6" y="8.684"/><use href="#8" y="10.855"/><use href="#9" y="13.026"/><use href="#10" y="15.197"/><use href="#11" y="17.368"/><use href="#12" y="19.539"/><use href="#13" y="21.71"/><text y="27.722" class="f">❱</text><text x="2.004" y="27.722" class="f">./batsw</text><text x="10.02" y="27.722" class="f">test.</text></svg><svg x="2640"><use href="#a"/><use href="#b" x="18.996" y="26.027"/><use href="#2"/><use href="#3" y="2.171"/><use href="#4" y="4.342"/><use href="#5" y="6.513"/><use href="#6" y="8.684"/><use href="#8" y="10.855"/><use href="#9" y="13.026"/><use href="#10" y="15.197"/><use href="#11" y="17.368"/><use href="#12" y="19.539"/><use href="#13" y="21.71"/><use href="#14" y="26.052"/></svg><svg x="2772"><use href="#a"/><use href="#2"/><use href="#3" y="2.171"/><use href="#4" y="4.342"/><use href="#5" y="6.513"/><use href="#6" y="8.684"/><use href="#8" y="10.855"/><use href="#9" y="13.026"/><use href="#10" y="15.197"/><use href="#11" y="17.368"/><use href="#12" y="19.539"/><use href="#13" y="21.71"/><use href="#14" y="26.052"/></svg><svg x="2904"><use href="#a"/><use href="#b" x="18.996" y="26.027"/><use href="#2"/><use href="#3" y="2.171"/><use href="#4" y="4.342"/><use href="#5" y="6.513"/><use href="#6" y="8.684"/><use href="#8" y="10.855"/><use href="#9" y="13.026"/><use href="#10" y="15.197"/><use href="#11" y="17.368"/><use href="#12" y="19.539"/><use href="#13" y="21.71"/><use href="#14" y="26.052"/></svg><svg x="3036"><use href="#a"/><use href="#b" x="-.004" y="28.198"/><use href="#2"/><use href="#3" y="2.171"/><use href="#4" y="4.342"/><use href="#5" y="6.513"/><use href="#6" y="8.684"/><use href="#8" y="10.855"/><use href="#9" y="13.026"/><use href="#10" y="15.197"/><use href="#11" y="17.368"/><use href="#12" y="19.539"/><use href="#13" y="21.71"/><use href="#15" y="26.052"/></svg><svg x="3168"><use href="#a"/><use href="#2"/><use href="#3" y="2.171"/><use href="#4" y="4.342"/><use href="#5" y="6.513"/><use href="#6" y="8.684"/><use href="#8" y="10.855"/><use href="#9" y="13.026"/><use href="#10" y="15.197"/><use href="#11" y="17.368"/><use href="#12" y="19.539"/><use href="#13" y="21.71"/><use href="#15" y="26.052"/></svg><svg x="3300"><use href="#a"/><use href="#2"/><use href="#3" y="2.171"/><use href="#4" y="4.342"/><use href="#5" y="6.513"/><use href="#6" y="8.684"/><use href="#8" y="10.855"/><use href="#9" y="13.026"/><use href="#10" y="15.197"/><use href="#11" y="17.368"/><use href="#12" y="19.539"/><use href="#13" y="21.71"/><use href="#15" y="26.052"/><use href="#16" y="28.223"/></svg><svg x="3432"><use href="#a"/><use href="#2"/><use href="#3" y="2.171"/><use href="#4" y="4.342"/><use href="#5" y="6.513"/><use href="#6" y="8.684"/><use href="#8" y="10.855"/><use href="#9" y="13.026"/><use href="#10" y="15.197"/><use href="#11" y="17.368"/><use href="#12" y="19.539"/><use href="#13" y="21.71"/><use href="#15" y="26.052"/><use href="#16" y="28.223"/><use href="#17" y="30.394"/></svg><svg x="3564"><use href="#a"/><use href="#2"/><use href="#3" y="2.171"/><use href="#4" y="4.342"/><use href="#5" y="6.513"/><use href="#6" y="8.684"/><use href="#8" y="10.855"/><use href="#9" y="13.026"/><use href="#10" y="15.197"/><use href="#11" y="17.368"/><use href="#12" y="19.539"/><use href="#13" y="21.71"/><use href="#15" y="26.052"/><use href="#16" y="28.223"/><use href="#17" y="30.394"/><use href="#18" y="32.565"/></svg><svg x="3696"><use href="#a"/><use href="#2"/><use href="#3" y="2.171"/><use href="#4" y="4.342"/><use href="#5" y="6.513"/><use href="#6" y="8.684"/><use href="#8" y="10.855"/><use href="#9" y="13.026"/><use href="#10" y="15.197"/><use href="#11" y="17.368"/><use href="#12" y="19.539"/><use href="#13" y="21.71"/><use href="#15" y="26.052"/><use href="#16" y="28.223"/><use href="#17" y="30.394"/><use href="#18" y="32.565"/><use href="#19" y="34.736"/></svg><svg x="3828"><use href="#a"/><use href="#2"/><use href="#3" y="2.171"/><use href="#4" y="4.342"/><use href="#5" y="6.513"/><use href="#6" y="8.684"/><use href="#8" y="10.855"/><use href="#9" y="13.026"/><use href="#10" y="15.197"/><use href="#11" y="17.368"/><use href="#12" y="19.539"/><use href="#13" y="21.71"/><use href="#15" y="26.052"/><use href="#16" y="28.223"/><use href="#17" y="30.394"/><use href="#18" y="32.565"/><use href="#19" y="34.736"/><use href="#20" y="36.907"/></svg><svg x="3960"><use href="#a"/><use href="#2"/><use href="#3" y="2.171"/><use href="#4" y="4.342"/><use href="#5" y="6.513"/><use href="#6" y="8.684"/><use href="#8" y="10.855"/><use href="#9" y="13.026"/><use href="#10" y="15.197"/><use href="#11" y="17.368"/><use href="#12" y="19.539"/><use href="#13" y="21.71"/><use href="#15" y="26.052"/><use href="#16" y="28.223"/><use href="#17" y="30.394"/><use href="#18" y="32.565"/><use href="#19" y="34.736"/><use href="#20" y="36.907"/></svg><svg x="4092"><use href="#a"/><use href="#2"/><use href="#3" y="2.171"/><use href="#4" y="4.342"/><use href="#5" y="6.513"/><use href="#6" y="8.684"/><use href="#8" y="10.855"/><use href="#9" y="13.026"/><use href="#10" y="15.197"/><use href="#11" y="17.368"/><use href="#12" y="19.539"/><use href="#13" y="21.71"/><use href="#15" y="26.052"/><use href="#16" y="28.223"/><use href="#17" y="30.394"/><use href="#18" y="32.565"/><use href="#19" y="34.736"/><use href="#20" y="36.907"/></svg><svg x="4224"><use href="#a"/><use href="#2"/><use href="#3" y="2.171"/><use href="#4" y="4.342"/><use href="#5" y="6.513"/><use href="#6" y="8.684"/><use href="#8" y="10.855"/><use href="#9" y="13.026"/><use href="#10" y="15.197"/><use href="#11" y="17.368"/><use href="#12" y="19.539"/><use href="#13" y="21.71"/><use href="#15" y="26.052"/><use href="#16" y="28.223"/><use href="#17" y="30.394"/><use href="#18" y="32.565"/><use href="#19" y="34.736"/><use href="#20" y="36.907"/></svg><svg x="4356"><use href="#a"/><use href="#2"/><use href="#3" y="2.171"/><use href="#4" y="4.342"/><use href="#5" y="6.513"/><use href="#6" y="8.684"/><use href="#8" y="10.855"/><use href="#9" y="13.026"/><use href="#10" y="15.197"/><use href="#11" y="17.368"/><use href="#12" y="19.539"/><use href="#13" y="21.71"/><use href="#15" y="26.052"/><use href="#16" y="28.223"/><use href="#17" y="30.394"/><use href="#18" y="32.565"/><use href="#19" y="34.736"/><use href="#20" y="36.907"/><use href="#21" y="43.42"/></svg><svg x="4488"><use href="#a"/><use href="#b" x="-.004" y="43.395"/><use href="#2"/><use href="#3" y="2.171"/><use href="#4" y="4.342"/><use href="#5" y="6.513"/><use href="#6" y="8.684"/><use href="#8" y="10.855"/><use href="#9" y="13.026"/><use href="#10" y="15.197"/><use href="#11" y="17.368"/><use href="#12" y="19.539"/><use href="#13" y="21.71"/><use href="#15" y="26.052"/><use href="#16" y="28.223"/><use href="#17" y="30.394"/><use href="#18" y="32.565"/><use href="#19" y="34.736"/><use href="#20" y="36.907"/><use href="#21" y="43.42"/></svg><svg x="4620"><use href="#a"/><use href="#2"/><use href="#3" y="2.171"/><use href="#4" y="4.342"/><use href="#5" y="6.513"/><use href="#6" y="8.684"/><use href="#8" y="10.855"/><use href="#9" y="13.026"/><use href="#10" y="15.197"/><use href="#11" y="17.368"/><use href="#12" y="19.539"/><use href="#13" y="21.71"/><use href="#15" y="26.052"/><use href="#16" y="28.223"/><use href="#17" y="30.394"/><use href="#18" y="32.565"/><use href="#19" y="34.736"/><use href="#20" y="36.907"/><use href="#21" y="43.42"/></svg><svg x="4752"><use href="#a"/><use href="#2"/><use href="#3" y="2.171"/><use href="#4" y="4.342"/><use href="#5" y="6.513"/><use href="#6" y="8.684"/><use href="#8" y="10.855"/><use href="#9" y="13.026"/><use href="#10" y="15.197"/><use href="#11" y="17.368"/><use href="#12" y="19.539"/><use href="#13" y="21.71"/><use href="#15" y="26.052"/><use href="#16" y="28.223"/><use href="#17" y="30.394"/><use href="#18" y="32.565"/><use href="#19" y="34.736"/><use href="#20" y="36.907"/><use href="#22" y="43.42"/></svg><svg x="4884"><use href="#a"/><use href="#b" x="-.004" y="43.395"/><use href="#2"/><use href="#3" y="2.171"/><use href="#4" y="4.342"/><use href="#5" y="6.513"/><use href="#6" y="8.684"/><use href="#8" y="10.855"/><use href="#9" y="13.026"/><use href="#10" y="15.197"/><use href="#11" y="17.368"/><use href="#12" y="19.539"/><use href="#13" y="21.71"/><use href="#15" y="26.052"/><use href="#16" y="28.223"/><use href="#17" y="30.394"/><use href="#18" y="32.565"/><use href="#19" y="34.736"/><use href="#20" y="36.907"/><use href="#22" y="43.42"/></svg><svg x="5016"><use href="#a"/><use href="#2"/><use href="#3" y="2.171"/><use href="#4" y="4.342"/><use href="#5" y="6.513"/><use href="#6" y="8.684"/><use href="#8" y="10.855"/><use href="#9" y="13.026"/><use href="#10" y="15.197"/><use href="#11" y="17.368"/><use href="#12" y="19.539"/><use href="#13" y="21.71"/><use href="#15" y="26.052"/><use href="#16" y="28.223"/><use href="#17" y="30.394"/><use href="#18" y="32.565"/><use href="#19" y="34.736"/><use href="#20" y="36.907"/><use href="#22" y="43.42"/></svg><svg x="5148"><use href="#a"/><use href="#2"/><use href="#3" y="2.171"/><use href="#4" y="4.342"/><use href="#5" y="6.513"/><use href="#6" y="8.684"/><use href="#8" y="10.855"/><use href="#9" y="13.026"/><use href="#10" y="15.197"/><use href="#11" y="17.368"/><use href="#12" y="19.539"/><use href="#13" y="21.71"/><use href="#15" y="26.052"/><use href="#16" y="28.223"/><use href="#17" y="30.394"/><use href="#18" y="32.565"/><use href="#19" y="34.736"/><use href="#20" y="36.907"/><use href="#23" y="43.42"/></svg><svg x="5280"><use href="#a"/><use href="#b" x="-.004" y="43.395"/><use href="#2"/><use href="#3" y="2.171"/><use href="#4" y="4.342"/><use href="#5" y="6.513"/><use href="#6" y="8.684"/><use href="#8" y="10.855"/><use href="#9" y="13.026"/><use href="#10" y="15.197"/><use href="#11" y="17.368"/><use href="#12" y="19.539"/><use href="#13" y="21.71"/><use href="#15" y="26.052"/><use href="#16" y="28.223"/><use href="#17" y="30.394"/><use href="#18" y="32.565"/><use href="#19" y="34.736"/><use href="#20" y="36.907"/><use href="#23" y="43.42"/></svg><svg x="5412"><use href="#a"/><use href="#2"/><use href="#3" y="2.171"/><use href="#4" y="4.342"/><use href="#5" y="6.513"/><use href="#6" y="8.684"/><use href="#8" y="10.855"/><use href="#9" y="13.026"/><use href="#10" y="15.197"/><use href="#11" y="17.368"/><use href="#12" y="19.539"/><use href="#13" y="21.71"/><use href="#15" y="26.052"/><use href="#16" y="28.223"/><use href="#17" y="30.394"/><use href="#18" y="32.565"/><use href="#19" y="34.736"/><use href="#20" y="36.907"/><use href="#23" y="43.42"/></svg><svg x="5544"><use href="#a"/><use href="#2"/><use href="#3" y="2.171"/><use href="#4" y="4.342"/><use href="#5" y="6.513"/><use href="#6" y="8.684"/><use href="#8" y="10.855"/><use href="#9" y="13.026"/><use href="#10" y="15.197"/><use href="#11" y="17.368"/><use href="#12" y="19.539"/><use href="#13" y="21.71"/><use href="#15" y="26.052"/><use href="#16" y="28.223"/><use href="#17" y="30.394"/><use href="#18" y="32.565"/><use href="#19" y="34.736"/><use href="#20" y="36.907"/><use href="#24" y="43.42"/></svg><svg x="5676"><use href="#a"/><use href="#b" x="-.004" y="43.395"/><use href="#2"/><use href="#3" y="2.171"/><use href="#4" y="4.342"/><use href="#5" y="6.513"/><use href="#6" y="8.684"/><use href="#8" y="10.855"/><use href="#9" y="13.026"/><use href="#10" y="15.197"/><use href="#11" y="17.368"/><use href="#12" y="19.539"/><use href="#13" y="21.71"/><use href="#15" y="26.052"/><use href="#16" y="28.223"/><use href="#17" y="30.394"/><use href="#18" y="32.565"/><use href="#19" y="34.736"/><use href="#20" y="36.907"/><use href="#24" y="43.42"/></svg><svg x="5808"><use href="#a"/><use href="#2"/><use href="#3" y="2.171"/><use href="#4" y="4.342"/><use href="#5" y="6.513"/><use href="#6" y="8.684"/><use href="#8" y="10.855"/><use href="#9" y="13.026"/><use href="#10" y="15.197"/><use href="#11" y="17.368"/><use href="#12" y="19.539"/><use href="#13" y="21.71"/><use href="#15" y="26.052"/><use href="#16" y="28.223"/><use href="#17" y="30.394"/><use href="#18" y="32.565"/><use href="#19" y="34.736"/><use href="#20" y="36.907"/><use href="#24" y="43.42"/></svg><svg x="5940"><use href="#a"/><use href="#2"/><use href="#3" y="2.171"/><use href="#4" y="4.342"/><use href="#5" y="6.513"/><use href="#6" y="8.684"/><use href="#8" y="10.855"/><use href="#9" y="13.026"/><use href="#10" y="15.197"/><use href="#11" y="17.368"/><use href="#12" y="19.539"/><use href="#13" y="21.71"/><use href="#15" y="26.052"/><use href="#16" y="28.223"/><use href="#17" y="30.394"/><use href="#18" y="32.565"/><use href="#19" y="34.736"/><use href="#20" y="36.907"/><use href="#25" y="43.42"/></svg><svg x="6072"><use href="#a"/><use href="#b" x="-.004" y="43.395"/><use href="#2"/><use href="#3" y="2.171"/><use href="#4" y="4.342"/><use href="#5" y="6.513"/><use href="#6" y="8.684"/><use href="#8" y="10.855"/><use href="#9" y="13.026"/><use href="#10" y="15.197"/><use href="#11" y="17.368"/><use href="#12" y="19.539"/><use href="#13" y="21.71"/><use href="#15" y="26.052"/><use href="#16" y="28.223"/><use href="#17" y="30.394"/><use href="#18" y="32.565"/><use href="#19" y="34.736"/><use href="#20" y="36.907"/><use href="#25" y="43.42"/></svg><svg x="6204"><use href="#a"/><use href="#2"/><use href="#3" y="2.171"/><use href="#4" y="4.342"/><use href="#5" y="6.513"/><use href="#6" y="8.684"/><use href="#8" y="10.855"/><use href="#9" y="13.026"/><use href="#10" y="15.197"/><use href="#11" y="17.368"/><use href="#12" y="19.539"/><use href="#13" y="21.71"/><use href="#15" y="26.052"/><use href="#16" y="28.223"/><use href="#17" y="30.394"/><use href="#18" y="32.565"/><use href="#19" y="34.736"/><use href="#20" y="36.907"/><use href="#25" y="43.42"/></svg></svg></g><svg height="100%" width="100%" viewBox="0 0 100 100" class="container_end"><text text-anchor="middle" alignment-baseline="central"><tspan y="50" x="50" style="font-size: 50px;">❚❚</tspan></text></svg></g></svg></svg>
